# xmcd
#
# Track frame offsets: 
#        150
#        25528
#        46066
#        73527
#        90198
#        109517
#        133972
#        161281
#        180244
#
# Disc length: 2804 seconds
#
# Revision: 0
# Processed by: cddbd v1.5PL3 Copyright (c) Steve Scherf et al.
# Submitted via: ExactAudioCopy v0.95a4
#
DISCID=5c0af209
DTITLE=The Chi-Lites - A Letter To Myself
DYEAR=1973
DGENRE=Soul
TTITLE0=A Letter To Myself
TTITLE1=Too Late To Turn Back Now
TTITLE2=Just Two Teenage Kids
TTITLE3=Sally
TTITLE4=Someone Else's Arms
TTITLE5=We Need Order
TTITLE6=Love Comes In All Sizes
TTITLE7=My Heart Just Keeps On Breaking
TTITLE8=You Smiled The Same Old Way
EXTD=
EXTT0=
EXTT1=
EXTT2=
EXTT3=
EXTT4=
EXTT5=
EXTT6=
EXTT7=
EXTT8=
PLAYORDER=
